<svg width="32" height="34" viewBox="0 0 32 34" fill="none" xmlns="http://www.w3.org/2000/svg">
<path d="M0.14032 14.5853C1.87057 15.5895 4.69209 16.1048 6.16105 15.9163C6.13838 16.26 6.12698 16.6098 6.12698 16.9657C6.12698 19.0708 6.53487 20.9878 7.35177 22.7158C8.20008 24.4124 9.36306 25.7637 10.8397 26.7691C12.3163 27.7743 14.0286 28.2765 15.9764 28.2765C17.9243 28.2765 19.6366 27.7743 21.1132 26.7691C22.5898 25.7637 23.7528 24.4124 24.6011 22.7158C25.4494 20.9878 25.873 19.0708 25.873 16.9657C25.873 16.6142 25.8606 16.2685 25.8369 15.9283C27.3019 16.1199 30.1265 15.6045 31.8607 14.6003C31.9528 15.3704 32 16.1588 32 16.9657C32 19.322 31.6077 21.5216 30.8223 23.5638C30.0368 25.606 28.921 27.4132 27.4757 28.9841C26.0619 30.5235 24.3653 31.7327 22.3861 32.6124C20.4381 33.4921 18.3015 33.9324 15.9764 33.9324C13.6514 33.9324 11.5148 33.4921 9.56682 32.6124C7.61905 31.7327 5.92238 30.5235 4.47721 28.9841C3.06335 27.4132 1.96316 25.606 1.17769 23.5638C0.392285 21.5216 0 19.322 0 16.9657C8.68216e-06 16.1535 0.047006 15.3601 0.14032 14.5853ZM15.9764 0C18.3015 0 20.4381 0.439275 22.3861 1.31901C24.3655 2.19874 26.0618 3.42445 27.4757 4.9954C28.9209 6.5349 30.0368 8.32547 30.8223 10.3677C31.0052 10.843 31.1651 11.3276 31.3054 11.82C31.2272 11.5496 31.1471 11.2927 31.0649 11.0662C30.0714 11.8081 27.6356 12.3295 25.2336 12.8022C25.0582 12.2722 24.8487 11.7589 24.6011 11.2637C23.7528 9.53565 22.5899 8.16875 21.1132 7.16334C19.6365 6.158 17.9244 5.6549 15.9764 5.6549C14.0285 5.65491 12.3164 6.15798 10.8397 7.16334C9.36303 8.16875 8.20009 9.51996 7.35177 11.2166C7.10594 11.7272 6.89718 12.2578 6.72534 12.8082C6.72791 12.7983 6.73078 12.7882 6.73336 12.7782C4.32231 12.304 1.96905 11.6837 0.971216 10.939C1.03714 10.7474 1.10504 10.5565 1.17769 10.3677C1.96316 8.32546 3.06339 6.5349 4.47721 4.9954C5.92248 3.42446 7.61886 2.19874 9.56682 1.31901C11.5148 0.439279 13.6514 4.25805e-06 15.9764 0ZM0.648479 11.9783C0.599495 12.1588 0.553296 12.3442 0.508159 12.5296C0.552465 12.3448 0.598372 12.1608 0.648479 11.9783Z" fill="#8B3DFF"/>
<path d="M0.14032 14.5853C1.87057 15.5895 4.69209 16.1048 6.16105 15.9163C6.13838 16.26 6.12698 16.6098 6.12698 16.9657C6.12698 19.0708 6.53487 20.9878 7.35177 22.7158C8.20008 24.4124 9.36306 25.7637 10.8397 26.7691C12.3163 27.7743 14.0286 28.2765 15.9764 28.2765C17.9243 28.2765 19.6366 27.7743 21.1132 26.7691C22.5898 25.7637 23.7528 24.4124 24.6011 22.7158C25.4494 20.9878 25.873 19.0708 25.873 16.9657C25.873 16.6142 25.8606 16.2685 25.8369 15.9283C27.3019 16.1199 30.1265 15.6045 31.8607 14.6003C31.9528 15.3704 32 16.1588 32 16.9657C32 19.322 31.6077 21.5216 30.8223 23.5638C30.0368 25.606 28.921 27.4132 27.4757 28.9841C26.0619 30.5235 24.3653 31.7327 22.3861 32.6124C20.4381 33.4921 18.3015 33.9324 15.9764 33.9324C13.6514 33.9324 11.5148 33.4921 9.56682 32.6124C7.61905 31.7327 5.92238 30.5235 4.47721 28.9841C3.06335 27.4132 1.96316 25.606 1.17769 23.5638C0.392285 21.5216 0 19.322 0 16.9657C8.68216e-06 16.1535 0.047006 15.3601 0.14032 14.5853ZM15.9764 0C18.3015 0 20.4381 0.439275 22.3861 1.31901C24.3655 2.19874 26.0618 3.42445 27.4757 4.9954C28.9209 6.5349 30.0368 8.32547 30.8223 10.3677C31.0052 10.843 31.1651 11.3276 31.3054 11.82C31.2272 11.5496 31.1471 11.2927 31.0649 11.0662C30.0714 11.8081 27.6356 12.3295 25.2336 12.8022C25.0582 12.2722 24.8487 11.7589 24.6011 11.2637C23.7528 9.53565 22.5899 8.16875 21.1132 7.16334C19.6365 6.158 17.9244 5.6549 15.9764 5.6549C14.0285 5.65491 12.3164 6.15798 10.8397 7.16334C9.36303 8.16875 8.20009 9.51996 7.35177 11.2166C7.10594 11.7272 6.89718 12.2578 6.72534 12.8082C6.72791 12.7983 6.73078 12.7882 6.73336 12.7782C4.32231 12.304 1.96905 11.6837 0.971216 10.939C1.03714 10.7474 1.10504 10.5565 1.17769 10.3677C1.96316 8.32546 3.06339 6.5349 4.47721 4.9954C5.92248 3.42446 7.61886 2.19874 9.56682 1.31901C11.5148 0.439279 13.6514 4.25805e-06 15.9764 0ZM0.648479 11.9783C0.599495 12.1588 0.553296 12.3442 0.508159 12.5296C0.552465 12.3448 0.598372 12.1608 0.648479 11.9783Z" fill="black" fill-opacity="0.2"/>
</svg>
