<svg width="20" height="16" viewBox="0 0 20 16" fill="none" xmlns="http://www.w3.org/2000/svg">
<path fill-rule="evenodd" clip-rule="evenodd" d="M4.39603 0.00751306C5.8564 0.164683 7.78855 0.571663 9.25 1.44474V11.6854C7.78855 10.8124 5.8564 10.4054 4.39603 10.2482C3.6275 10.1655 3 9.5541 3 8.8V1.29012C3 0.536023 3.6275 -0.0751869 4.39603 0.00751306ZM15.604 10.2482C14.1436 10.4054 12.2114 10.8124 10.75 11.6854V1.44474C12.2114 0.571663 14.1436 0.164683 15.604 0.00751306C16.3725 -0.0751869 17 0.536023 17 1.29012V8.8C17 9.5541 16.3725 10.1655 15.604 10.2482ZM0 7.9999C0 6.7367 0.58554 5.61026 1.5 4.8772V8.7999C1.5 10.4376 2.82763 11.588 4.23553 11.7396C5.71117 11.8984 7.50618 12.3152 8.6891 13.1046C9.479 13.6317 10.521 13.6317 11.3109 13.1046C12.4938 12.3152 14.2888 11.8984 15.7645 11.7396C17.1724 11.588 18.5 10.4376 18.5 8.7999V4.8772C19.4145 5.61026 20 6.7367 20 7.9999V11.9999C20 14.209 18.2091 15.9999 16 15.9999H4C1.79086 15.9999 0 14.209 0 11.9999V7.9999Z" fill="#8B3DFF"/>
<path fill-rule="evenodd" clip-rule="evenodd" d="M4.39603 0.00751306C5.8564 0.164683 7.78855 0.571663 9.25 1.44474V11.6854C7.78855 10.8124 5.8564 10.4054 4.39603 10.2482C3.6275 10.1655 3 9.5541 3 8.8V1.29012C3 0.536023 3.6275 -0.0751869 4.39603 0.00751306ZM15.604 10.2482C14.1436 10.4054 12.2114 10.8124 10.75 11.6854V1.44474C12.2114 0.571663 14.1436 0.164683 15.604 0.00751306C16.3725 -0.0751869 17 0.536023 17 1.29012V8.8C17 9.5541 16.3725 10.1655 15.604 10.2482ZM0 7.9999C0 6.7367 0.58554 5.61026 1.5 4.8772V8.7999C1.5 10.4376 2.82763 11.588 4.23553 11.7396C5.71117 11.8984 7.50618 12.3152 8.6891 13.1046C9.479 13.6317 10.521 13.6317 11.3109 13.1046C12.4938 12.3152 14.2888 11.8984 15.7645 11.7396C17.1724 11.588 18.5 10.4376 18.5 8.7999V4.8772C19.4145 5.61026 20 6.7367 20 7.9999V11.9999C20 14.209 18.2091 15.9999 16 15.9999H4C1.79086 15.9999 0 14.209 0 11.9999V7.9999Z" fill="black" fill-opacity="0.2"/>
</svg>
