<svg width="22" height="18" viewBox="0 0 22 18" fill="none" xmlns="http://www.w3.org/2000/svg">
<path d="M19.8933 0.00175105C18.8 0.0473885 17.9508 0.970485 17.9964 2.0638C18.0311 2.89846 17.8596 4.63974 17.1159 6.24272C16.3979 7.79047 15.2345 9.0557 13.2905 9.4735L12.6203 9.61411C11.0992 9.92649 9.86927 10.1294 8.82002 10.303C7.65395 10.4958 6.59961 10.6683 5.67309 10.9338C4.68998 11.2154 3.80702 11.6112 2.92477 12.267C2.07393 12.8994 1.29137 13.7243 0.442825 14.7702C-0.246634 15.62 -0.116728 16.8678 0.733073 17.5572C1.58287 18.2466 2.83065 18.1167 3.52009 17.267C4.27675 16.3343 4.81953 15.7966 5.28932 15.4474C5.72767 15.1217 6.16075 14.9161 6.76442 14.7431C7.42488 14.5539 8.22895 14.4177 9.46695 14.2129C10.5212 14.0386 11.813 13.8255 13.4162 13.4963L14.1232 13.348C17.6138 12.5978 19.6306 10.2398 20.7111 7.91068C21.7661 5.63681 22.0115 3.24734 21.9553 1.89868C21.9097 0.805354 20.9866 -0.0438116 19.8933 0.00175105Z" fill="#009DA3"/>
</svg>
