<svg width="22" height="18" viewBox="0 0 22 18" fill="none" xmlns="http://www.w3.org/2000/svg">
<path d="M2.06953 0.00175105C3.16282 0.0473885 4.01202 0.970485 3.96646 2.0638C3.93169 2.89846 4.10321 4.63974 4.84688 6.24272C5.56495 7.79047 6.72835 9.0557 8.67234 9.4735L9.34249 9.61411C10.8637 9.92649 12.0935 10.1294 13.1428 10.303C14.3089 10.4958 15.3632 10.6683 16.2897 10.9338C17.2728 11.2154 18.1558 11.6112 19.038 12.267C19.8889 12.8994 20.6714 13.7243 21.52 14.7702C22.2094 15.62 22.0795 16.8678 21.2297 17.5572C20.3799 18.2466 19.1322 18.1167 18.4427 17.267C17.6861 16.3343 17.1433 15.7966 16.6735 15.4474C16.2351 15.1217 15.8021 14.9161 15.1984 14.7431C14.5379 14.5539 13.7339 14.4177 12.4959 14.2129C11.4416 14.0386 10.1498 13.8255 8.54657 13.4963L7.83965 13.348C4.34903 12.5978 2.33225 10.2398 1.25168 7.91068C0.196756 5.63681 -0.0487184 3.24734 0.00748441 1.89868C0.0530851 0.805354 0.976195 -0.0438116 2.06953 0.00175105Z" fill="#009DA3"/>
</svg>
